# xmcd
#
# Track frame offsets:
#	150
#	28679
#	41349
#	52318
#	76502
#	89875
#	106918
#	124613
#	140643
#	161144
#	182070
#	197916
#	212970
#	238000
#	272240
#	284212
#	310351
#	324659
#
# Disc length: 4496 seconds
#
# Revision: 0
# Processed by: cddbd v1.5.2PL0 Copyright (c) Steve Scherf et al.
# Submitted via: EasyCDDAExtractor 12.1.0.1
#
DISCID=1b118e12
DTITLE=Silvio Rodriguez - Recopilacion
DYEAR=1900
DGENRE=pop
TTITLE0=Sueño de una noche de verano
TTITLE1=Que se puede hacer con el amor
TTITLE2=Oleo de una mujer con sombrero
TTITLE3=Causas y azares
TTITLE4=Cancion urgente para Nicaragua
TTITLE5=Al final de este viaje en la vida
TTITLE6=Nuestro tema
TTITLE7=Ojalá
TTITLE8=Unicornio
TTITLE9=Reparador de sueños
TTITLE10=Por todo espacio por todo tiempo
TTITLE11=Playa Girón
TTITLE12=Sueño con serpientes
TTITLE13=No me hacen falta alas
TTITLE14=Lo de mas
TTITLE15=La maza
TTITLE16=La era esta pariendo un córazon
TTITLE17=Caballo mistico
EXTD=
EXTT0=
EXTT1=
EXTT2=
EXTT3=
EXTT4=
EXTT5=
EXTT6=
EXTT7=
EXTT8=
EXTT9=
EXTT10=
EXTT11=
EXTT12=
EXTT13=
EXTT14=
EXTT15=
EXTT16=
EXTT17=
PLAYORDER=
